<mxfile host="app.diagrams.net" modified="2023-01-17T06:54:28.972Z" agent="5.0 (Windows NT 10.0; WOW64) AppleWebKit/537.36 (KHTML, like Gecko) Chrome/109.0.0.0 Safari/537.36" etag="jeuDU23MwNukLOr7NKN_" version="20.8.5" type="github">
  <diagram id="C5RBs43oDa-KdzZeNtuy" name="Page-1">
    <mxGraphModel dx="880" dy="456" grid="1" gridSize="10" guides="1" tooltips="1" connect="1" arrows="1" fold="1" page="1" pageScale="1" pageWidth="827" pageHeight="1169" math="0" shadow="0">
      <root>
        <mxCell id="WIyWlLk6GJQsqaUBKTNV-0" />
        <mxCell id="WIyWlLk6GJQsqaUBKTNV-1" parent="WIyWlLk6GJQsqaUBKTNV-0" />
        <mxCell id="HuWPIJXyMUmJ91hmkElU-3" value="" style="edgeStyle=orthogonalEdgeStyle;rounded=0;orthogonalLoop=1;jettySize=auto;html=1;" edge="1" parent="WIyWlLk6GJQsqaUBKTNV-1" source="HuWPIJXyMUmJ91hmkElU-0" target="HuWPIJXyMUmJ91hmkElU-2">
          <mxGeometry relative="1" as="geometry" />
        </mxCell>
        <mxCell id="HuWPIJXyMUmJ91hmkElU-0" value="user activity" style="rounded=1;whiteSpace=wrap;html=1;" vertex="1" parent="WIyWlLk6GJQsqaUBKTNV-1">
          <mxGeometry x="350" y="60" width="80" height="30" as="geometry" />
        </mxCell>
        <mxCell id="HuWPIJXyMUmJ91hmkElU-8" style="edgeStyle=orthogonalEdgeStyle;rounded=0;orthogonalLoop=1;jettySize=auto;html=1;entryX=0.5;entryY=0;entryDx=0;entryDy=0;" edge="1" parent="WIyWlLk6GJQsqaUBKTNV-1" source="HuWPIJXyMUmJ91hmkElU-2" target="HuWPIJXyMUmJ91hmkElU-4">
          <mxGeometry relative="1" as="geometry">
            <mxPoint x="140" y="190" as="targetPoint" />
            <Array as="points">
              <mxPoint x="140" y="145" />
            </Array>
          </mxGeometry>
        </mxCell>
        <mxCell id="HuWPIJXyMUmJ91hmkElU-11" style="edgeStyle=orthogonalEdgeStyle;rounded=0;orthogonalLoop=1;jettySize=auto;html=1;entryX=0.45;entryY=-0.033;entryDx=0;entryDy=0;entryPerimeter=0;" edge="1" parent="WIyWlLk6GJQsqaUBKTNV-1" source="HuWPIJXyMUmJ91hmkElU-2" target="HuWPIJXyMUmJ91hmkElU-5">
          <mxGeometry relative="1" as="geometry" />
        </mxCell>
        <mxCell id="HuWPIJXyMUmJ91hmkElU-12" style="edgeStyle=orthogonalEdgeStyle;rounded=0;orthogonalLoop=1;jettySize=auto;html=1;entryX=0.5;entryY=0;entryDx=0;entryDy=0;" edge="1" parent="WIyWlLk6GJQsqaUBKTNV-1" source="HuWPIJXyMUmJ91hmkElU-2" target="HuWPIJXyMUmJ91hmkElU-6">
          <mxGeometry relative="1" as="geometry" />
        </mxCell>
        <mxCell id="HuWPIJXyMUmJ91hmkElU-13" style="edgeStyle=orthogonalEdgeStyle;rounded=0;orthogonalLoop=1;jettySize=auto;html=1;exitX=1;exitY=0.5;exitDx=0;exitDy=0;entryX=0.5;entryY=0;entryDx=0;entryDy=0;" edge="1" parent="WIyWlLk6GJQsqaUBKTNV-1" source="HuWPIJXyMUmJ91hmkElU-2" target="HuWPIJXyMUmJ91hmkElU-7">
          <mxGeometry relative="1" as="geometry" />
        </mxCell>
        <mxCell id="HuWPIJXyMUmJ91hmkElU-2" value="user profile page" style="rounded=0;whiteSpace=wrap;html=1;" vertex="1" parent="WIyWlLk6GJQsqaUBKTNV-1">
          <mxGeometry x="340" y="120" width="100" height="50" as="geometry" />
        </mxCell>
        <mxCell id="HuWPIJXyMUmJ91hmkElU-16" value="" style="edgeStyle=orthogonalEdgeStyle;rounded=0;orthogonalLoop=1;jettySize=auto;html=1;" edge="1" parent="WIyWlLk6GJQsqaUBKTNV-1" source="HuWPIJXyMUmJ91hmkElU-4" target="HuWPIJXyMUmJ91hmkElU-14">
          <mxGeometry relative="1" as="geometry" />
        </mxCell>
        <mxCell id="HuWPIJXyMUmJ91hmkElU-4" value="create patient" style="rounded=0;whiteSpace=wrap;html=1;" vertex="1" parent="WIyWlLk6GJQsqaUBKTNV-1">
          <mxGeometry x="80" y="240" width="120" height="30" as="geometry" />
        </mxCell>
        <mxCell id="HuWPIJXyMUmJ91hmkElU-5" value="show all patient" style="rounded=0;whiteSpace=wrap;html=1;" vertex="1" parent="WIyWlLk6GJQsqaUBKTNV-1">
          <mxGeometry x="240" y="240" width="120" height="30" as="geometry" />
        </mxCell>
        <mxCell id="HuWPIJXyMUmJ91hmkElU-27" value="" style="edgeStyle=orthogonalEdgeStyle;rounded=0;orthogonalLoop=1;jettySize=auto;html=1;" edge="1" parent="WIyWlLk6GJQsqaUBKTNV-1" source="HuWPIJXyMUmJ91hmkElU-6" target="HuWPIJXyMUmJ91hmkElU-22">
          <mxGeometry relative="1" as="geometry" />
        </mxCell>
        <mxCell id="HuWPIJXyMUmJ91hmkElU-6" value="update patient" style="rounded=0;whiteSpace=wrap;html=1;" vertex="1" parent="WIyWlLk6GJQsqaUBKTNV-1">
          <mxGeometry x="420" y="240" width="120" height="30" as="geometry" />
        </mxCell>
        <mxCell id="HuWPIJXyMUmJ91hmkElU-7" value="Request consultation" style="rounded=0;whiteSpace=wrap;html=1;" vertex="1" parent="WIyWlLk6GJQsqaUBKTNV-1">
          <mxGeometry x="600" y="240" width="120" height="30" as="geometry" />
        </mxCell>
        <mxCell id="HuWPIJXyMUmJ91hmkElU-17" value="" style="edgeStyle=orthogonalEdgeStyle;rounded=0;orthogonalLoop=1;jettySize=auto;html=1;" edge="1" parent="WIyWlLk6GJQsqaUBKTNV-1" source="HuWPIJXyMUmJ91hmkElU-14" target="HuWPIJXyMUmJ91hmkElU-15">
          <mxGeometry relative="1" as="geometry" />
        </mxCell>
        <mxCell id="HuWPIJXyMUmJ91hmkElU-14" value="provide details" style="rounded=0;whiteSpace=wrap;html=1;" vertex="1" parent="WIyWlLk6GJQsqaUBKTNV-1">
          <mxGeometry x="80" y="320" width="120" height="30" as="geometry" />
        </mxCell>
        <mxCell id="HuWPIJXyMUmJ91hmkElU-18" style="edgeStyle=orthogonalEdgeStyle;rounded=0;orthogonalLoop=1;jettySize=auto;html=1;entryX=0.442;entryY=0.967;entryDx=0;entryDy=0;entryPerimeter=0;" edge="1" parent="WIyWlLk6GJQsqaUBKTNV-1" source="HuWPIJXyMUmJ91hmkElU-15" target="HuWPIJXyMUmJ91hmkElU-5">
          <mxGeometry relative="1" as="geometry" />
        </mxCell>
        <mxCell id="HuWPIJXyMUmJ91hmkElU-20" style="edgeStyle=orthogonalEdgeStyle;rounded=0;orthogonalLoop=1;jettySize=auto;html=1;" edge="1" parent="WIyWlLk6GJQsqaUBKTNV-1" source="HuWPIJXyMUmJ91hmkElU-15">
          <mxGeometry relative="1" as="geometry">
            <mxPoint x="80" y="360" as="targetPoint" />
          </mxGeometry>
        </mxCell>
        <mxCell id="HuWPIJXyMUmJ91hmkElU-15" value="valid data?" style="rhombus;whiteSpace=wrap;html=1;" vertex="1" parent="WIyWlLk6GJQsqaUBKTNV-1">
          <mxGeometry x="100" y="390" width="80" height="80" as="geometry" />
        </mxCell>
        <mxCell id="HuWPIJXyMUmJ91hmkElU-19" value="yes" style="text;html=1;strokeColor=none;fillColor=none;align=center;verticalAlign=middle;whiteSpace=wrap;rounded=0;" vertex="1" parent="WIyWlLk6GJQsqaUBKTNV-1">
          <mxGeometry x="200" y="400" width="60" height="30" as="geometry" />
        </mxCell>
        <mxCell id="HuWPIJXyMUmJ91hmkElU-21" value="no" style="text;html=1;strokeColor=none;fillColor=none;align=center;verticalAlign=middle;whiteSpace=wrap;rounded=0;" vertex="1" parent="WIyWlLk6GJQsqaUBKTNV-1">
          <mxGeometry x="40" y="380" width="60" height="30" as="geometry" />
        </mxCell>
        <mxCell id="HuWPIJXyMUmJ91hmkElU-23" style="edgeStyle=orthogonalEdgeStyle;rounded=0;orthogonalLoop=1;jettySize=auto;html=1;" edge="1" parent="WIyWlLk6GJQsqaUBKTNV-1" source="HuWPIJXyMUmJ91hmkElU-22" target="HuWPIJXyMUmJ91hmkElU-14">
          <mxGeometry relative="1" as="geometry" />
        </mxCell>
        <mxCell id="HuWPIJXyMUmJ91hmkElU-29" value="" style="edgeStyle=orthogonalEdgeStyle;rounded=0;orthogonalLoop=1;jettySize=auto;html=1;" edge="1" parent="WIyWlLk6GJQsqaUBKTNV-1" source="HuWPIJXyMUmJ91hmkElU-22" target="HuWPIJXyMUmJ91hmkElU-28">
          <mxGeometry relative="1" as="geometry" />
        </mxCell>
        <mxCell id="HuWPIJXyMUmJ91hmkElU-22" value="update?" style="rhombus;whiteSpace=wrap;html=1;" vertex="1" parent="WIyWlLk6GJQsqaUBKTNV-1">
          <mxGeometry x="450" y="305" width="60" height="60" as="geometry" />
        </mxCell>
        <mxCell id="HuWPIJXyMUmJ91hmkElU-24" value="yes" style="text;html=1;strokeColor=none;fillColor=none;align=center;verticalAlign=middle;whiteSpace=wrap;rounded=0;" vertex="1" parent="WIyWlLk6GJQsqaUBKTNV-1">
          <mxGeometry x="370" y="335" width="60" height="30" as="geometry" />
        </mxCell>
        <mxCell id="HuWPIJXyMUmJ91hmkElU-31" style="edgeStyle=orthogonalEdgeStyle;rounded=0;orthogonalLoop=1;jettySize=auto;html=1;" edge="1" parent="WIyWlLk6GJQsqaUBKTNV-1" source="HuWPIJXyMUmJ91hmkElU-28">
          <mxGeometry relative="1" as="geometry">
            <mxPoint x="540" y="280" as="targetPoint" />
          </mxGeometry>
        </mxCell>
        <mxCell id="HuWPIJXyMUmJ91hmkElU-28" value="delete?" style="rhombus;whiteSpace=wrap;html=1;" vertex="1" parent="WIyWlLk6GJQsqaUBKTNV-1">
          <mxGeometry x="450" y="400" width="60" height="60" as="geometry" />
        </mxCell>
        <mxCell id="HuWPIJXyMUmJ91hmkElU-30" value="no" style="text;html=1;strokeColor=none;fillColor=none;align=center;verticalAlign=middle;whiteSpace=wrap;rounded=0;" vertex="1" parent="WIyWlLk6GJQsqaUBKTNV-1">
          <mxGeometry x="470" y="360" width="60" height="30" as="geometry" />
        </mxCell>
        <mxCell id="HuWPIJXyMUmJ91hmkElU-32" value="no" style="text;html=1;strokeColor=none;fillColor=none;align=center;verticalAlign=middle;whiteSpace=wrap;rounded=0;" vertex="1" parent="WIyWlLk6GJQsqaUBKTNV-1">
          <mxGeometry x="530" y="410" width="60" height="30" as="geometry" />
        </mxCell>
      </root>
    </mxGraphModel>
  </diagram>
</mxfile>
